<mxfile host="app.diagrams.net" agent="Mozilla/5.0 (Windows NT 10.0; Win64; x64) AppleWebKit/537.36 (KHTML, like Gecko) Chrome/132.0.0.0 Safari/537.36 OPR/117.0.0.0" version="26.1.1">
  <diagram name="Paket-Diagramm" id="pZp3oFQMyeXmxtDsMMZz">
    <mxGraphModel dx="1160" dy="628" grid="1" gridSize="10" guides="1" tooltips="1" connect="1" arrows="1" fold="1" page="1" pageScale="1" pageWidth="827" pageHeight="1169" math="0" shadow="0">
      <root>
        <mxCell id="0" />
        <mxCell id="1" parent="0" />
        <mxCell id="q3rhu8iJ1AstdEmXZjXm-8" value="Gast" style="shape=umlActor;verticalLabelPosition=bottom;verticalAlign=top;html=1;" vertex="1" parent="1">
          <mxGeometry x="80" y="180" width="30" height="60" as="geometry" />
        </mxCell>
        <mxCell id="q3rhu8iJ1AstdEmXZjXm-9" value="" style="html=1;whiteSpace=wrap;" vertex="1" parent="1">
          <mxGeometry x="180" y="80" width="490" height="420" as="geometry" />
        </mxCell>
        <mxCell id="q3rhu8iJ1AstdEmXZjXm-10" value="" style="ellipse;whiteSpace=wrap;html=1;" vertex="1" parent="1">
          <mxGeometry x="200" y="100" width="120" height="80" as="geometry" />
        </mxCell>
        <mxCell id="q3rhu8iJ1AstdEmXZjXm-13" value="" style="ellipse;whiteSpace=wrap;html=1;" vertex="1" parent="1">
          <mxGeometry x="520" y="100" width="120" height="80" as="geometry" />
        </mxCell>
        <mxCell id="q3rhu8iJ1AstdEmXZjXm-11" value="Registrierung" style="text;html=1;align=center;verticalAlign=middle;whiteSpace=wrap;rounded=0;" vertex="1" parent="1">
          <mxGeometry x="530" y="125" width="100" height="30" as="geometry" />
        </mxCell>
        <mxCell id="q3rhu8iJ1AstdEmXZjXm-12" value="LogIn" style="text;html=1;align=center;verticalAlign=middle;whiteSpace=wrap;rounded=0;" vertex="1" parent="1">
          <mxGeometry x="230" y="130" width="60" height="30" as="geometry" />
        </mxCell>
        <mxCell id="q3rhu8iJ1AstdEmXZjXm-15" value="includes" style="endArrow=open;endSize=12;dashed=1;html=1;rounded=0;exitX=1;exitY=0.5;exitDx=0;exitDy=0;entryX=0;entryY=0.5;entryDx=0;entryDy=0;" edge="1" parent="1" source="q3rhu8iJ1AstdEmXZjXm-10" target="q3rhu8iJ1AstdEmXZjXm-13">
          <mxGeometry width="160" relative="1" as="geometry">
            <mxPoint x="290" y="260" as="sourcePoint" />
            <mxPoint x="450" y="260" as="targetPoint" />
          </mxGeometry>
        </mxCell>
        <mxCell id="q3rhu8iJ1AstdEmXZjXm-18" value="" style="endArrow=none;html=1;rounded=0;entryX=0.063;entryY=0.694;entryDx=0;entryDy=0;entryPerimeter=0;" edge="1" parent="1" source="q3rhu8iJ1AstdEmXZjXm-8" target="q3rhu8iJ1AstdEmXZjXm-10">
          <mxGeometry width="50" height="50" relative="1" as="geometry">
            <mxPoint x="150" y="210" as="sourcePoint" />
            <mxPoint x="200" y="160" as="targetPoint" />
          </mxGeometry>
        </mxCell>
        <mxCell id="q3rhu8iJ1AstdEmXZjXm-19" value="Hotel suchen" style="ellipse;whiteSpace=wrap;html=1;" vertex="1" parent="1">
          <mxGeometry x="200" y="240" width="120" height="80" as="geometry" />
        </mxCell>
        <mxCell id="q3rhu8iJ1AstdEmXZjXm-20" value="includes" style="endArrow=open;endSize=12;dashed=1;html=1;rounded=0;entryX=0.5;entryY=1;entryDx=0;entryDy=0;exitX=0.563;exitY=-0.031;exitDx=0;exitDy=0;exitPerimeter=0;" edge="1" parent="1" source="q3rhu8iJ1AstdEmXZjXm-19" target="q3rhu8iJ1AstdEmXZjXm-10">
          <mxGeometry width="160" relative="1" as="geometry">
            <mxPoint x="339.99999999999994" y="181.36000000000007" as="sourcePoint" />
            <mxPoint x="342.04000000000013" y="238.63999999999993" as="targetPoint" />
          </mxGeometry>
        </mxCell>
        <mxCell id="q3rhu8iJ1AstdEmXZjXm-22" value="Zimmer wählen" style="ellipse;whiteSpace=wrap;html=1;" vertex="1" parent="1">
          <mxGeometry x="200" y="360" width="120" height="80" as="geometry" />
        </mxCell>
        <mxCell id="q3rhu8iJ1AstdEmXZjXm-24" value="includes" style="endArrow=open;endSize=12;dashed=1;html=1;rounded=0;entryX=0.5;entryY=1;entryDx=0;entryDy=0;exitX=0.5;exitY=0;exitDx=0;exitDy=0;" edge="1" parent="1" source="q3rhu8iJ1AstdEmXZjXm-22" target="q3rhu8iJ1AstdEmXZjXm-19">
          <mxGeometry width="160" relative="1" as="geometry">
            <mxPoint x="300" y="350" as="sourcePoint" />
            <mxPoint x="370" y="350" as="targetPoint" />
          </mxGeometry>
        </mxCell>
        <mxCell id="q3rhu8iJ1AstdEmXZjXm-25" value="Verfügbarkeit prüfen" style="ellipse;whiteSpace=wrap;html=1;" vertex="1" parent="1">
          <mxGeometry x="380" y="370" width="120" height="80" as="geometry" />
        </mxCell>
        <mxCell id="q3rhu8iJ1AstdEmXZjXm-26" value="includes" style="endArrow=open;endSize=12;dashed=1;html=1;rounded=0;exitX=1;exitY=0.5;exitDx=0;exitDy=0;entryX=0.011;entryY=0.383;entryDx=0;entryDy=0;entryPerimeter=0;" edge="1" parent="1" source="q3rhu8iJ1AstdEmXZjXm-22" target="q3rhu8iJ1AstdEmXZjXm-25">
          <mxGeometry x="0.0056" width="160" relative="1" as="geometry">
            <mxPoint x="450" y="390" as="sourcePoint" />
            <mxPoint x="610" y="390" as="targetPoint" />
            <mxPoint as="offset" />
          </mxGeometry>
        </mxCell>
        <mxCell id="q3rhu8iJ1AstdEmXZjXm-27" value="Zimmerdatenbank" style="shape=umlActor;verticalLabelPosition=bottom;verticalAlign=top;html=1;" vertex="1" parent="1">
          <mxGeometry x="425" y="540" width="30" height="60" as="geometry" />
        </mxCell>
        <mxCell id="q3rhu8iJ1AstdEmXZjXm-29" value="" style="endArrow=none;html=1;rounded=0;entryX=0.5;entryY=1;entryDx=0;entryDy=0;" edge="1" parent="1" target="q3rhu8iJ1AstdEmXZjXm-25">
          <mxGeometry width="50" height="50" relative="1" as="geometry">
            <mxPoint x="440" y="540" as="sourcePoint" />
            <mxPoint x="490" y="490" as="targetPoint" />
          </mxGeometry>
        </mxCell>
        <mxCell id="q3rhu8iJ1AstdEmXZjXm-30" value="Buchung &amp;amp; Zahlung" style="ellipse;whiteSpace=wrap;html=1;" vertex="1" parent="1">
          <mxGeometry x="540" y="280" width="120" height="80" as="geometry" />
        </mxCell>
        <mxCell id="q3rhu8iJ1AstdEmXZjXm-31" value="" style="endArrow=none;html=1;rounded=0;entryX=0.086;entryY=0.275;entryDx=0;entryDy=0;entryPerimeter=0;" edge="1" parent="1" target="q3rhu8iJ1AstdEmXZjXm-30">
          <mxGeometry width="50" height="50" relative="1" as="geometry">
            <mxPoint x="110" y="200" as="sourcePoint" />
            <mxPoint x="400" y="340" as="targetPoint" />
            <Array as="points">
              <mxPoint x="130" y="350" />
              <mxPoint x="360" y="350" />
            </Array>
          </mxGeometry>
        </mxCell>
        <mxCell id="q3rhu8iJ1AstdEmXZjXm-35" value="Ablauf Zimmerbuchung" style="text;html=1;align=center;verticalAlign=middle;whiteSpace=wrap;rounded=0;" vertex="1" parent="1">
          <mxGeometry x="150" y="80" width="200" height="30" as="geometry" />
        </mxCell>
        <mxCell id="q3rhu8iJ1AstdEmXZjXm-36" value="includes" style="endArrow=open;endSize=12;dashed=1;html=1;rounded=0;exitX=0.208;exitY=0.858;exitDx=0;exitDy=0;entryX=0.958;entryY=0.338;entryDx=0;entryDy=0;entryPerimeter=0;exitPerimeter=0;" edge="1" parent="1" source="q3rhu8iJ1AstdEmXZjXm-30" target="q3rhu8iJ1AstdEmXZjXm-25">
          <mxGeometry x="-0.0387" y="-2" width="160" relative="1" as="geometry">
            <mxPoint x="540" y="390" as="sourcePoint" />
            <mxPoint x="601" y="391" as="targetPoint" />
            <mxPoint as="offset" />
          </mxGeometry>
        </mxCell>
      </root>
    </mxGraphModel>
  </diagram>
</mxfile>
